M48
;DRILL file {KiCad (5.0.0)} date 09/27/18 22:56:56
;FORMAT={-:-/ absolute / inch / decimal}
FMAT,2
INCH,TZ
T1C0.0315
T2C0.0394
T3C0.0400
T4C0.0472
%
G90
G05
M72
T1
X6.2Y-4.05
X6.2Y-4.15
X6.2Y-4.25
X6.2Y-4.35
X6.2Y-4.45
X6.2Y-4.55
X6.2Y-4.65
X6.2Y-4.75
X6.7Y-4.05
X6.7Y-4.15
X6.7Y-4.25
X6.7Y-4.35
X6.7Y-4.45
X6.7Y-4.55
X6.7Y-4.65
X6.7Y-4.75
T2
X6.275Y-3.525
X6.375Y-3.525
X6.475Y-3.525
X6.575Y-3.525
T3
X7.425Y-3.275
X7.425Y-4.175
X7.525Y-3.275
X7.525Y-4.175
X7.625Y-3.275
X7.625Y-4.175
X7.725Y-3.275
X7.725Y-4.175
X7.825Y-3.275
X7.825Y-4.175
X7.925Y-3.275
X7.925Y-4.175
X8.025Y-3.275
X8.025Y-4.175
X8.125Y-3.275
X8.125Y-4.175
T4
X7.4Y-4.575
X7.4Y-4.7719
T2
X7.925Y-4.6144G85X7.925Y-4.5356
G05
X8.0825Y-4.39G85X8.0037Y-4.39
G05
X8.1612Y-4.6144G85X8.1612Y-4.5356
G05
T0
M30
