G04 #@! TF.GenerationSoftware,KiCad,Pcbnew,(5.0.0)*
G04 #@! TF.CreationDate,2018-09-27T22:56:36-04:00*
G04 #@! TF.ProjectId,first attempt,666972737420617474656D70742E6B69,rev?*
G04 #@! TF.SameCoordinates,Original*
G04 #@! TF.FileFunction,Soldermask,Top*
G04 #@! TF.FilePolarity,Negative*
%FSLAX46Y46*%
G04 Gerber Fmt 4.6, Leading zero omitted, Abs format (unit mm)*
G04 Created by KiCad (PCBNEW (5.0.0)) date 09/27/18 22:56:36*
%MOMM*%
%LPD*%
G01*
G04 APERTURE LIST*
%ADD10R,3.500000X3.500000*%
%ADD11C,0.100000*%
%ADD12C,3.000000*%
%ADD13C,3.500000*%
%ADD14C,1.800000*%
%ADD15R,1.600000X1.600000*%
%ADD16O,1.600000X1.600000*%
%ADD17R,2.400000X2.400000*%
%ADD18C,2.400000*%
%ADD19O,1.700000X1.700000*%
%ADD20R,1.700000X1.700000*%
G04 APERTURE END LIST*
D10*
G04 #@! TO.C,J1*
X201295000Y-116205000D03*
D11*
G36*
X208118513Y-114458611D02*
X208191318Y-114469411D01*
X208262714Y-114487295D01*
X208332013Y-114512090D01*
X208398548Y-114543559D01*
X208461678Y-114581398D01*
X208520795Y-114625242D01*
X208575330Y-114674670D01*
X208624758Y-114729205D01*
X208668602Y-114788322D01*
X208706441Y-114851452D01*
X208737910Y-114917987D01*
X208762705Y-114987286D01*
X208780589Y-115058682D01*
X208791389Y-115131487D01*
X208795000Y-115205000D01*
X208795000Y-117205000D01*
X208791389Y-117278513D01*
X208780589Y-117351318D01*
X208762705Y-117422714D01*
X208737910Y-117492013D01*
X208706441Y-117558548D01*
X208668602Y-117621678D01*
X208624758Y-117680795D01*
X208575330Y-117735330D01*
X208520795Y-117784758D01*
X208461678Y-117828602D01*
X208398548Y-117866441D01*
X208332013Y-117897910D01*
X208262714Y-117922705D01*
X208191318Y-117940589D01*
X208118513Y-117951389D01*
X208045000Y-117955000D01*
X206545000Y-117955000D01*
X206471487Y-117951389D01*
X206398682Y-117940589D01*
X206327286Y-117922705D01*
X206257987Y-117897910D01*
X206191452Y-117866441D01*
X206128322Y-117828602D01*
X206069205Y-117784758D01*
X206014670Y-117735330D01*
X205965242Y-117680795D01*
X205921398Y-117621678D01*
X205883559Y-117558548D01*
X205852090Y-117492013D01*
X205827295Y-117422714D01*
X205809411Y-117351318D01*
X205798611Y-117278513D01*
X205795000Y-117205000D01*
X205795000Y-115205000D01*
X205798611Y-115131487D01*
X205809411Y-115058682D01*
X205827295Y-114987286D01*
X205852090Y-114917987D01*
X205883559Y-114851452D01*
X205921398Y-114788322D01*
X205965242Y-114729205D01*
X206014670Y-114674670D01*
X206069205Y-114625242D01*
X206128322Y-114581398D01*
X206191452Y-114543559D01*
X206257987Y-114512090D01*
X206327286Y-114487295D01*
X206398682Y-114469411D01*
X206471487Y-114458611D01*
X206545000Y-114455000D01*
X208045000Y-114455000D01*
X208118513Y-114458611D01*
X208118513Y-114458611D01*
G37*
D12*
X207295000Y-116205000D03*
D11*
G36*
X205255765Y-109759213D02*
X205340704Y-109771813D01*
X205423999Y-109792677D01*
X205504848Y-109821605D01*
X205582472Y-109858319D01*
X205656124Y-109902464D01*
X205725094Y-109953616D01*
X205788718Y-110011282D01*
X205846384Y-110074906D01*
X205897536Y-110143876D01*
X205941681Y-110217528D01*
X205978395Y-110295152D01*
X206007323Y-110376001D01*
X206028187Y-110459296D01*
X206040787Y-110544235D01*
X206045000Y-110630000D01*
X206045000Y-112380000D01*
X206040787Y-112465765D01*
X206028187Y-112550704D01*
X206007323Y-112633999D01*
X205978395Y-112714848D01*
X205941681Y-112792472D01*
X205897536Y-112866124D01*
X205846384Y-112935094D01*
X205788718Y-112998718D01*
X205725094Y-113056384D01*
X205656124Y-113107536D01*
X205582472Y-113151681D01*
X205504848Y-113188395D01*
X205423999Y-113217323D01*
X205340704Y-113238187D01*
X205255765Y-113250787D01*
X205170000Y-113255000D01*
X203420000Y-113255000D01*
X203334235Y-113250787D01*
X203249296Y-113238187D01*
X203166001Y-113217323D01*
X203085152Y-113188395D01*
X203007528Y-113151681D01*
X202933876Y-113107536D01*
X202864906Y-113056384D01*
X202801282Y-112998718D01*
X202743616Y-112935094D01*
X202692464Y-112866124D01*
X202648319Y-112792472D01*
X202611605Y-112714848D01*
X202582677Y-112633999D01*
X202561813Y-112550704D01*
X202549213Y-112465765D01*
X202545000Y-112380000D01*
X202545000Y-110630000D01*
X202549213Y-110544235D01*
X202561813Y-110459296D01*
X202582677Y-110376001D01*
X202611605Y-110295152D01*
X202648319Y-110217528D01*
X202692464Y-110143876D01*
X202743616Y-110074906D01*
X202801282Y-110011282D01*
X202864906Y-109953616D01*
X202933876Y-109902464D01*
X203007528Y-109858319D01*
X203085152Y-109821605D01*
X203166001Y-109792677D01*
X203249296Y-109771813D01*
X203334235Y-109759213D01*
X203420000Y-109755000D01*
X205170000Y-109755000D01*
X205255765Y-109759213D01*
X205255765Y-109759213D01*
G37*
D13*
X204295000Y-111505000D03*
G04 #@! TD*
D14*
G04 #@! TO.C,U1*
X188595000Y-106045000D03*
X191135000Y-106045000D03*
X193675000Y-106045000D03*
X196215000Y-106045000D03*
X198755000Y-106045000D03*
X201295000Y-106045000D03*
X203835000Y-106045000D03*
X206375000Y-106045000D03*
X206375000Y-83185000D03*
X203835000Y-83185000D03*
X201295000Y-83185000D03*
X198755000Y-83185000D03*
X196215000Y-83185000D03*
X193675000Y-83185000D03*
X191135000Y-83185000D03*
X188595000Y-83185000D03*
G04 #@! TD*
D15*
G04 #@! TO.C,A1*
X170180000Y-120650000D03*
D16*
X157480000Y-102870000D03*
X170180000Y-118110000D03*
X157480000Y-105410000D03*
X170180000Y-115570000D03*
X157480000Y-107950000D03*
X170180000Y-113030000D03*
X157480000Y-110490000D03*
X170180000Y-110490000D03*
X157480000Y-113030000D03*
X170180000Y-107950000D03*
X157480000Y-115570000D03*
X170180000Y-105410000D03*
X157480000Y-118110000D03*
X170180000Y-102870000D03*
X157480000Y-120650000D03*
G04 #@! TD*
D17*
G04 #@! TO.C,C1*
X187960000Y-116205000D03*
D18*
X187960000Y-121205000D03*
G04 #@! TD*
D19*
G04 #@! TO.C,J2*
X159385000Y-89535000D03*
X161925000Y-89535000D03*
X164465000Y-89535000D03*
D20*
X167005000Y-89535000D03*
G04 #@! TD*
M02*
